<svg width="1024" height="1024" viewBox="0 0 1024 1024" fill="none" xmlns="http://www.w3.org/2000/svg">
  <defs>
    <linearGradient id="tile" x1="180" y1="138" x2="844" y2="904" gradientUnits="userSpaceOnUse">
      <stop stop-color="#9B74FF"/>
      <stop offset="0.46" stop-color="#7C5DFA"/>
      <stop offset="1" stop-color="#2A234B"/>
    </linearGradient>
    <linearGradient id="tileGlow" x1="272" y1="178" x2="760" y2="756" gradientUnits="userSpaceOnUse">
      <stop stop-color="white" stop-opacity="0.28"/>
      <stop offset="0.55" stop-color="white" stop-opacity="0.06"/>
      <stop offset="1" stop-color="white" stop-opacity="0"/>
    </linearGradient>
    <linearGradient id="shield" x1="352" y1="252" x2="686" y2="734" gradientUnits="userSpaceOnUse">
      <stop stop-color="#FDFDFF"/>
      <stop offset="1" stop-color="#D7CCFF"/>
    </linearGradient>
    <linearGradient id="shieldInner" x1="390" y1="308" x2="650" y2="674" gradientUnits="userSpaceOnUse">
      <stop stop-color="#FFFFFF" stop-opacity="0.22"/>
      <stop offset="1" stop-color="#FFFFFF" stop-opacity="0.04"/>
    </linearGradient>
    <linearGradient id="slash" x1="420" y1="350" x2="640" y2="666" gradientUnits="userSpaceOnUse">
      <stop stop-color="#06E1A6"/>
      <stop offset="1" stop-color="#1CB7FF"/>
    </linearGradient>
    <filter id="tileShadow" x="48" y="48" width="928" height="928" filterUnits="userSpaceOnUse" color-interpolation-filters="sRGB">
      <feFlood flood-opacity="0" result="BackgroundImageFix"/>
      <feColorMatrix in="SourceAlpha" type="matrix" values="0 0 0 0 0 0 0 0 0 0 0 0 0 0 0 0 0 0 127 0" result="hardAlpha"/>
      <feOffset dy="26"/>
      <feGaussianBlur stdDeviation="28"/>
      <feColorMatrix type="matrix" values="0 0 0 0 0.0705882 0 0 0 0 0.0509804 0 0 0 0 0.188235 0 0 0 0.24 0"/>
      <feBlend mode="normal" in2="BackgroundImageFix" result="effect1_dropShadow_0_1"/>
      <feBlend mode="normal" in="SourceGraphic" in2="effect1_dropShadow_0_1" result="shape"/>
    </filter>
    <filter id="innerSoft" x="270" y="186" width="484" height="620" filterUnits="userSpaceOnUse" color-interpolation-filters="sRGB">
      <feFlood flood-opacity="0" result="BackgroundImageFix"/>
      <feColorMatrix in="SourceAlpha" type="matrix" values="0 0 0 0 0 0 0 0 0 0 0 0 0 0 0 0 0 0 127 0" result="hardAlpha"/>
      <feOffset dy="20"/>
      <feGaussianBlur stdDeviation="26"/>
      <feColorMatrix type="matrix" values="0 0 0 0 0.0666667 0 0 0 0 0.0470588 0 0 0 0 0.164706 0 0 0 0.22 0"/>
      <feBlend mode="normal" in2="BackgroundImageFix" result="effect1_dropShadow_0_2"/>
      <feBlend mode="normal" in="SourceGraphic" in2="effect1_dropShadow_0_2" result="shape"/>
    </filter>
    <clipPath id="tileClip">
      <path d="M 914.00 512.00 L 913.97 615.66 L 913.89 643.64 L 913.76 663.37 L 913.57 679.14 L 913.33 692.47 L 913.04 704.13 L 912.69 714.56 L 912.29 724.04 L 911.83 732.74 L 911.32 740.81 L 910.75 748.35 L 910.13 755.42 L 909.46 762.09 L 908.73 768.41 L 907.94 774.42 L 907.10 780.14 L 906.21 785.60 L 905.25 790.83 L 904.24 795.84 L 903.17 800.65 L 902.05 805.28 L 900.86 809.74 L 899.62 814.03 L 898.32 818.17 L 896.95 822.17 L 895.53 826.03 L 894.05 829.77 L 892.50 833.38 L 890.89 836.87 L 889.21 840.25 L 887.47 843.52 L 885.67 846.69 L 883.80 849.76 L 881.86 852.74 L 879.85 855.62 L 877.77 858.41 L 875.62 861.11 L 873.39 863.73 L 871.09 866.26 L 868.72 868.72 L 866.26 871.09 L 863.73 873.39 L 861.11 875.62 L 858.41 877.77 L 855.62 879.85 L 852.74 881.86 L 849.76 883.80 L 846.69 885.67 L 843.52 887.47 L 840.25 889.21 L 836.87 890.89 L 833.38 892.50 L 829.77 894.05 L 826.03 895.53 L 822.17 896.95 L 818.17 898.32 L 814.03 899.62 L 809.74 900.86 L 805.28 902.05 L 800.65 903.17 L 795.84 904.24 L 790.83 905.25 L 785.60 906.21 L 780.14 907.10 L 774.42 907.94 L 768.41 908.73 L 762.09 909.46 L 755.42 910.13 L 748.35 910.75 L 740.81 911.32 L 732.74 911.83 L 724.04 912.29 L 714.56 912.69 L 704.13 913.04 L 692.47 913.33 L 679.14 913.57 L 663.37 913.76 L 643.64 913.89 L 615.66 913.97 L 512.00 914.00 L 408.34 913.97 L 380.36 913.89 L 360.63 913.76 L 344.86 913.57 L 331.53 913.33 L 319.87 913.04 L 309.44 912.69 L 299.96 912.29 L 291.26 911.83 L 283.19 911.32 L 275.65 910.75 L 268.58 910.13 L 261.91 909.46 L 255.59 908.73 L 249.58 907.94 L 243.86 907.10 L 238.40 906.21 L 233.17 905.25 L 228.16 904.24 L 223.35 903.17 L 218.72 902.05 L 214.26 900.86 L 209.97 899.62 L 205.83 898.32 L 201.83 896.95 L 197.97 895.53 L 194.23 894.05 L 190.62 892.50 L 187.13 890.89 L 183.75 889.21 L 180.48 887.47 L 177.31 885.67 L 174.24 883.80 L 171.26 881.86 L 168.38 879.85 L 165.59 877.77 L 162.89 875.62 L 160.27 873.39 L 157.74 871.09 L 155.28 868.72 L 152.91 866.26 L 150.61 863.73 L 148.38 861.11 L 146.23 858.41 L 144.15 855.62 L 142.14 852.74 L 140.20 849.76 L 138.33 846.69 L 136.53 843.52 L 134.79 840.25 L 133.11 836.87 L 131.50 833.38 L 129.95 829.77 L 128.47 826.03 L 127.05 822.17 L 125.68 818.17 L 124.38 814.03 L 123.14 809.74 L 121.95 805.28 L 120.83 800.65 L 119.76 795.84 L 118.75 790.83 L 117.79 785.60 L 116.90 780.14 L 116.06 774.42 L 115.27 768.41 L 114.54 762.09 L 113.87 755.42 L 113.25 748.35 L 112.68 740.81 L 112.17 732.74 L 111.71 724.04 L 111.31 714.56 L 110.96 704.13 L 110.67 692.47 L 110.43 679.14 L 110.24 663.37 L 110.11 643.64 L 110.03 615.66 L 110.00 512.00 L 110.03 408.34 L 110.11 380.36 L 110.24 360.63 L 110.43 344.86 L 110.67 331.53 L 110.96 319.87 L 111.31 309.44 L 111.71 299.96 L 112.17 291.26 L 112.68 283.19 L 113.25 275.65 L 113.87 268.58 L 114.54 261.91 L 115.27 255.59 L 116.06 249.58 L 116.90 243.86 L 117.79 238.40 L 118.75 233.17 L 119.76 228.16 L 120.83 223.35 L 121.95 218.72 L 123.14 214.26 L 124.38 209.97 L 125.68 205.83 L 127.05 201.83 L 128.47 197.97 L 129.95 194.23 L 131.50 190.62 L 133.11 187.13 L 134.79 183.75 L 136.53 180.48 L 138.33 177.31 L 140.20 174.24 L 142.14 171.26 L 144.15 168.38 L 146.23 165.59 L 148.38 162.89 L 150.61 160.27 L 152.91 157.74 L 155.28 155.28 L 157.74 152.91 L 160.27 150.61 L 162.89 148.38 L 165.59 146.23 L 168.38 144.15 L 171.26 142.14 L 174.24 140.20 L 177.31 138.33 L 180.48 136.53 L 183.75 134.79 L 187.13 133.11 L 190.62 131.50 L 194.23 129.95 L 197.97 128.47 L 201.83 127.05 L 205.83 125.68 L 209.97 124.38 L 214.26 123.14 L 218.72 121.95 L 223.35 120.83 L 228.16 119.76 L 233.17 118.75 L 238.40 117.79 L 243.86 116.90 L 249.58 116.06 L 255.59 115.27 L 261.91 114.54 L 268.58 113.87 L 275.65 113.25 L 283.19 112.68 L 291.26 112.17 L 299.96 111.71 L 309.44 111.31 L 319.87 110.96 L 331.53 110.67 L 344.86 110.43 L 360.63 110.24 L 380.36 110.11 L 408.34 110.03 L 512.00 110.00 L 615.66 110.03 L 643.64 110.11 L 663.37 110.24 L 679.14 110.43 L 692.47 110.67 L 704.13 110.96 L 714.56 111.31 L 724.04 111.71 L 732.74 112.17 L 740.81 112.68 L 748.35 113.25 L 755.42 113.87 L 762.09 114.54 L 768.41 115.27 L 774.42 116.06 L 780.14 116.90 L 785.60 117.79 L 790.83 118.75 L 795.84 119.76 L 800.65 120.83 L 805.28 121.95 L 809.74 123.14 L 814.03 124.38 L 818.17 125.68 L 822.17 127.05 L 826.03 128.47 L 829.77 129.95 L 833.38 131.50 L 836.87 133.11 L 840.25 134.79 L 843.52 136.53 L 846.69 138.33 L 849.76 140.20 L 852.74 142.14 L 855.62 144.15 L 858.41 146.23 L 861.11 148.38 L 863.73 150.61 L 866.26 152.91 L 868.72 155.28 L 871.09 157.74 L 873.39 160.27 L 875.62 162.89 L 877.77 165.59 L 879.85 168.38 L 881.86 171.26 L 883.80 174.24 L 885.67 177.31 L 887.47 180.48 L 889.21 183.75 L 890.89 187.13 L 892.50 190.62 L 894.05 194.23 L 895.53 197.97 L 896.95 201.83 L 898.32 205.83 L 899.62 209.97 L 900.86 214.26 L 902.05 218.72 L 903.17 223.35 L 904.24 228.16 L 905.25 233.17 L 906.21 238.40 L 907.10 243.86 L 907.94 249.58 L 908.73 255.59 L 909.46 261.91 L 910.13 268.58 L 910.75 275.65 L 911.32 283.19 L 911.83 291.26 L 912.29 299.96 L 912.69 309.44 L 913.04 319.87 L 913.33 331.53 L 913.57 344.86 L 913.76 360.63 L 913.89 380.36 L 913.97 408.34 Z"/>
    </clipPath>
  </defs>

  <g filter="url(#tileShadow)">
    <g clip-path="url(#tileClip)">
      <path d="M 914.00 512.00 L 913.97 615.66 L 913.89 643.64 L 913.76 663.37 L 913.57 679.14 L 913.33 692.47 L 913.04 704.13 L 912.69 714.56 L 912.29 724.04 L 911.83 732.74 L 911.32 740.81 L 910.75 748.35 L 910.13 755.42 L 909.46 762.09 L 908.73 768.41 L 907.94 774.42 L 907.10 780.14 L 906.21 785.60 L 905.25 790.83 L 904.24 795.84 L 903.17 800.65 L 902.05 805.28 L 900.86 809.74 L 899.62 814.03 L 898.32 818.17 L 896.95 822.17 L 895.53 826.03 L 894.05 829.77 L 892.50 833.38 L 890.89 836.87 L 889.21 840.25 L 887.47 843.52 L 885.67 846.69 L 883.80 849.76 L 881.86 852.74 L 879.85 855.62 L 877.77 858.41 L 875.62 861.11 L 873.39 863.73 L 871.09 866.26 L 868.72 868.72 L 866.26 871.09 L 863.73 873.39 L 861.11 875.62 L 858.41 877.77 L 855.62 879.85 L 852.74 881.86 L 849.76 883.80 L 846.69 885.67 L 843.52 887.47 L 840.25 889.21 L 836.87 890.89 L 833.38 892.50 L 829.77 894.05 L 826.03 895.53 L 822.17 896.95 L 818.17 898.32 L 814.03 899.62 L 809.74 900.86 L 805.28 902.05 L 800.65 903.17 L 795.84 904.24 L 790.83 905.25 L 785.60 906.21 L 780.14 907.10 L 774.42 907.94 L 768.41 908.73 L 762.09 909.46 L 755.42 910.13 L 748.35 910.75 L 740.81 911.32 L 732.74 911.83 L 724.04 912.29 L 714.56 912.69 L 704.13 913.04 L 692.47 913.33 L 679.14 913.57 L 663.37 913.76 L 643.64 913.89 L 615.66 913.97 L 512.00 914.00 L 408.34 913.97 L 380.36 913.89 L 360.63 913.76 L 344.86 913.57 L 331.53 913.33 L 319.87 913.04 L 309.44 912.69 L 299.96 912.29 L 291.26 911.83 L 283.19 911.32 L 275.65 910.75 L 268.58 910.13 L 261.91 909.46 L 255.59 908.73 L 249.58 907.94 L 243.86 907.10 L 238.40 906.21 L 233.17 905.25 L 228.16 904.24 L 223.35 903.17 L 218.72 902.05 L 214.26 900.86 L 209.97 899.62 L 205.83 898.32 L 201.83 896.95 L 197.97 895.53 L 194.23 894.05 L 190.62 892.50 L 187.13 890.89 L 183.75 889.21 L 180.48 887.47 L 177.31 885.67 L 174.24 883.80 L 171.26 881.86 L 168.38 879.85 L 165.59 877.77 L 162.89 875.62 L 160.27 873.39 L 157.74 871.09 L 155.28 868.72 L 152.91 866.26 L 150.61 863.73 L 148.38 861.11 L 146.23 858.41 L 144.15 855.62 L 142.14 852.74 L 140.20 849.76 L 138.33 846.69 L 136.53 843.52 L 134.79 840.25 L 133.11 836.87 L 131.50 833.38 L 129.95 829.77 L 128.47 826.03 L 127.05 822.17 L 125.68 818.17 L 124.38 814.03 L 123.14 809.74 L 121.95 805.28 L 120.83 800.65 L 119.76 795.84 L 118.75 790.83 L 117.79 785.60 L 116.90 780.14 L 116.06 774.42 L 115.27 768.41 L 114.54 762.09 L 113.87 755.42 L 113.25 748.35 L 112.68 740.81 L 112.17 732.74 L 111.71 724.04 L 111.31 714.56 L 110.96 704.13 L 110.67 692.47 L 110.43 679.14 L 110.24 663.37 L 110.11 643.64 L 110.03 615.66 L 110.00 512.00 L 110.03 408.34 L 110.11 380.36 L 110.24 360.63 L 110.43 344.86 L 110.67 331.53 L 110.96 319.87 L 111.31 309.44 L 111.71 299.96 L 112.17 291.26 L 112.68 283.19 L 113.25 275.65 L 113.87 268.58 L 114.54 261.91 L 115.27 255.59 L 116.06 249.58 L 116.90 243.86 L 117.79 238.40 L 118.75 233.17 L 119.76 228.16 L 120.83 223.35 L 121.95 218.72 L 123.14 214.26 L 124.38 209.97 L 125.68 205.83 L 127.05 201.83 L 128.47 197.97 L 129.95 194.23 L 131.50 190.62 L 133.11 187.13 L 134.79 183.75 L 136.53 180.48 L 138.33 177.31 L 140.20 174.24 L 142.14 171.26 L 144.15 168.38 L 146.23 165.59 L 148.38 162.89 L 150.61 160.27 L 152.91 157.74 L 155.28 155.28 L 157.74 152.91 L 160.27 150.61 L 162.89 148.38 L 165.59 146.23 L 168.38 144.15 L 171.26 142.14 L 174.24 140.20 L 177.31 138.33 L 180.48 136.53 L 183.75 134.79 L 187.13 133.11 L 190.62 131.50 L 194.23 129.95 L 197.97 128.47 L 201.83 127.05 L 205.83 125.68 L 209.97 124.38 L 214.26 123.14 L 218.72 121.95 L 223.35 120.83 L 228.16 119.76 L 233.17 118.75 L 238.40 117.79 L 243.86 116.90 L 249.58 116.06 L 255.59 115.27 L 261.91 114.54 L 268.58 113.87 L 275.65 113.25 L 283.19 112.68 L 291.26 112.17 L 299.96 111.71 L 309.44 111.31 L 319.87 110.96 L 331.53 110.67 L 344.86 110.43 L 360.63 110.24 L 380.36 110.11 L 408.34 110.03 L 512.00 110.00 L 615.66 110.03 L 643.64 110.11 L 663.37 110.24 L 679.14 110.43 L 692.47 110.67 L 704.13 110.96 L 714.56 111.31 L 724.04 111.71 L 732.74 112.17 L 740.81 112.68 L 748.35 113.25 L 755.42 113.87 L 762.09 114.54 L 768.41 115.27 L 774.42 116.06 L 780.14 116.90 L 785.60 117.79 L 790.83 118.75 L 795.84 119.76 L 800.65 120.83 L 805.28 121.95 L 809.74 123.14 L 814.03 124.38 L 818.17 125.68 L 822.17 127.05 L 826.03 128.47 L 829.77 129.95 L 833.38 131.50 L 836.87 133.11 L 840.25 134.79 L 843.52 136.53 L 846.69 138.33 L 849.76 140.20 L 852.74 142.14 L 855.62 144.15 L 858.41 146.23 L 861.11 148.38 L 863.73 150.61 L 866.26 152.91 L 868.72 155.28 L 871.09 157.74 L 873.39 160.27 L 875.62 162.89 L 877.77 165.59 L 879.85 168.38 L 881.86 171.26 L 883.80 174.24 L 885.67 177.31 L 887.47 180.48 L 889.21 183.75 L 890.89 187.13 L 892.50 190.62 L 894.05 194.23 L 895.53 197.97 L 896.95 201.83 L 898.32 205.83 L 899.62 209.97 L 900.86 214.26 L 902.05 218.72 L 903.17 223.35 L 904.24 228.16 L 905.25 233.17 L 906.21 238.40 L 907.10 243.86 L 907.94 249.58 L 908.73 255.59 L 909.46 261.91 L 910.13 268.58 L 910.75 275.65 L 911.32 283.19 L 911.83 291.26 L 912.29 299.96 L 912.69 309.44 L 913.04 319.87 L 913.33 331.53 L 913.57 344.86 L 913.76 360.63 L 913.89 380.36 L 913.97 408.34 Z" fill="url(#tile)"/>
      <path d="M252 312C296 222 380 176 474 168C586 158 696 196 766 272C830 342 860 446 846 542C832 638 770 722 688 778C606 834 498 850 402 816C306 782 226 706 196 612C168 526 196 428 252 312Z" fill="url(#tileGlow)"/>
      <path d="M 914.00 512.00 L 913.97 615.66 L 913.89 643.64 L 913.76 663.37 L 913.57 679.14 L 913.33 692.47 L 913.04 704.13 L 912.69 714.56 L 912.29 724.04 L 911.83 732.74 L 911.32 740.81 L 910.75 748.35 L 910.13 755.42 L 909.46 762.09 L 908.73 768.41 L 907.94 774.42 L 907.10 780.14 L 906.21 785.60 L 905.25 790.83 L 904.24 795.84 L 903.17 800.65 L 902.05 805.28 L 900.86 809.74 L 899.62 814.03 L 898.32 818.17 L 896.95 822.17 L 895.53 826.03 L 894.05 829.77 L 892.50 833.38 L 890.89 836.87 L 889.21 840.25 L 887.47 843.52 L 885.67 846.69 L 883.80 849.76 L 881.86 852.74 L 879.85 855.62 L 877.77 858.41 L 875.62 861.11 L 873.39 863.73 L 871.09 866.26 L 868.72 868.72 L 866.26 871.09 L 863.73 873.39 L 861.11 875.62 L 858.41 877.77 L 855.62 879.85 L 852.74 881.86 L 849.76 883.80 L 846.69 885.67 L 843.52 887.47 L 840.25 889.21 L 836.87 890.89 L 833.38 892.50 L 829.77 894.05 L 826.03 895.53 L 822.17 896.95 L 818.17 898.32 L 814.03 899.62 L 809.74 900.86 L 805.28 902.05 L 800.65 903.17 L 795.84 904.24 L 790.83 905.25 L 785.60 906.21 L 780.14 907.10 L 774.42 907.94 L 768.41 908.73 L 762.09 909.46 L 755.42 910.13 L 748.35 910.75 L 740.81 911.32 L 732.74 911.83 L 724.04 912.29 L 714.56 912.69 L 704.13 913.04 L 692.47 913.33 L 679.14 913.57 L 663.37 913.76 L 643.64 913.89 L 615.66 913.97 L 512.00 914.00 L 408.34 913.97 L 380.36 913.89 L 360.63 913.76 L 344.86 913.57 L 331.53 913.33 L 319.87 913.04 L 309.44 912.69 L 299.96 912.29 L 291.26 911.83 L 283.19 911.32 L 275.65 910.75 L 268.58 910.13 L 261.91 909.46 L 255.59 908.73 L 249.58 907.94 L 243.86 907.10 L 238.40 906.21 L 233.17 905.25 L 228.16 904.24 L 223.35 903.17 L 218.72 902.05 L 214.26 900.86 L 209.97 899.62 L 205.83 898.32 L 201.83 896.95 L 197.97 895.53 L 194.23 894.05 L 190.62 892.50 L 187.13 890.89 L 183.75 889.21 L 180.48 887.47 L 177.31 885.67 L 174.24 883.80 L 171.26 881.86 L 168.38 879.85 L 165.59 877.77 L 162.89 875.62 L 160.27 873.39 L 157.74 871.09 L 155.28 868.72 L 152.91 866.26 L 150.61 863.73 L 148.38 861.11 L 146.23 858.41 L 144.15 855.62 L 142.14 852.74 L 140.20 849.76 L 138.33 846.69 L 136.53 843.52 L 134.79 840.25 L 133.11 836.87 L 131.50 833.38 L 129.95 829.77 L 128.47 826.03 L 127.05 822.17 L 125.68 818.17 L 124.38 814.03 L 123.14 809.74 L 121.95 805.28 L 120.83 800.65 L 119.76 795.84 L 118.75 790.83 L 117.79 785.60 L 116.90 780.14 L 116.06 774.42 L 115.27 768.41 L 114.54 762.09 L 113.87 755.42 L 113.25 748.35 L 112.68 740.81 L 112.17 732.74 L 111.71 724.04 L 111.31 714.56 L 110.96 704.13 L 110.67 692.47 L 110.43 679.14 L 110.24 663.37 L 110.11 643.64 L 110.03 615.66 L 110.00 512.00 L 110.03 408.34 L 110.11 380.36 L 110.24 360.63 L 110.43 344.86 L 110.67 331.53 L 110.96 319.87 L 111.31 309.44 L 111.71 299.96 L 112.17 291.26 L 112.68 283.19 L 113.25 275.65 L 113.87 268.58 L 114.54 261.91 L 115.27 255.59 L 116.06 249.58 L 116.90 243.86 L 117.79 238.40 L 118.75 233.17 L 119.76 228.16 L 120.83 223.35 L 121.95 218.72 L 123.14 214.26 L 124.38 209.97 L 125.68 205.83 L 127.05 201.83 L 128.47 197.97 L 129.95 194.23 L 131.50 190.62 L 133.11 187.13 L 134.79 183.75 L 136.53 180.48 L 138.33 177.31 L 140.20 174.24 L 142.14 171.26 L 144.15 168.38 L 146.23 165.59 L 148.38 162.89 L 150.61 160.27 L 152.91 157.74 L 155.28 155.28 L 157.74 152.91 L 160.27 150.61 L 162.89 148.38 L 165.59 146.23 L 168.38 144.15 L 171.26 142.14 L 174.24 140.20 L 177.31 138.33 L 180.48 136.53 L 183.75 134.79 L 187.13 133.11 L 190.62 131.50 L 194.23 129.95 L 197.97 128.47 L 201.83 127.05 L 205.83 125.68 L 209.97 124.38 L 214.26 123.14 L 218.72 121.95 L 223.35 120.83 L 228.16 119.76 L 233.17 118.75 L 238.40 117.79 L 243.86 116.90 L 249.58 116.06 L 255.59 115.27 L 261.91 114.54 L 268.58 113.87 L 275.65 113.25 L 283.19 112.68 L 291.26 112.17 L 299.96 111.71 L 309.44 111.31 L 319.87 110.96 L 331.53 110.67 L 344.86 110.43 L 360.63 110.24 L 380.36 110.11 L 408.34 110.03 L 512.00 110.00 L 615.66 110.03 L 643.64 110.11 L 663.37 110.24 L 679.14 110.43 L 692.47 110.67 L 704.13 110.96 L 714.56 111.31 L 724.04 111.71 L 732.74 112.17 L 740.81 112.68 L 748.35 113.25 L 755.42 113.87 L 762.09 114.54 L 768.41 115.27 L 774.42 116.06 L 780.14 116.90 L 785.60 117.79 L 790.83 118.75 L 795.84 119.76 L 800.65 120.83 L 805.28 121.95 L 809.74 123.14 L 814.03 124.38 L 818.17 125.68 L 822.17 127.05 L 826.03 128.47 L 829.77 129.95 L 833.38 131.50 L 836.87 133.11 L 840.25 134.79 L 843.52 136.53 L 846.69 138.33 L 849.76 140.20 L 852.74 142.14 L 855.62 144.15 L 858.41 146.23 L 861.11 148.38 L 863.73 150.61 L 866.26 152.91 L 868.72 155.28 L 871.09 157.74 L 873.39 160.27 L 875.62 162.89 L 877.77 165.59 L 879.85 168.38 L 881.86 171.26 L 883.80 174.24 L 885.67 177.31 L 887.47 180.48 L 889.21 183.75 L 890.89 187.13 L 892.50 190.62 L 894.05 194.23 L 895.53 197.97 L 896.95 201.83 L 898.32 205.83 L 899.62 209.97 L 900.86 214.26 L 902.05 218.72 L 903.17 223.35 L 904.24 228.16 L 905.25 233.17 L 906.21 238.40 L 907.10 243.86 L 907.94 249.58 L 908.73 255.59 L 909.46 261.91 L 910.13 268.58 L 910.75 275.65 L 911.32 283.19 L 911.83 291.26 L 912.29 299.96 L 912.69 309.44 L 913.04 319.87 L 913.33 331.53 L 913.57 344.86 L 913.76 360.63 L 913.89 380.36 L 913.97 408.34 Z" stroke="rgba(255,255,255,0.14)" stroke-width="6"/>
      <path d="M174 266C206 214 256 178 320 160C274 188 236 230 214 280C186 344 176 414 176 512C176 610 186 680 214 744C230 780 254 812 286 838C232 814 190 778 160 726C126 668 122 596 122 512C122 426 126 354 160 298C164 287 169 276 174 266Z" fill="rgba(255,255,255,0.06)"/>
    </g>
  </g>

  <g filter="url(#innerSoft)">
    <path d="M512 252C561 281 613 303 668 322C676 370 675 422 665 472C648 555 611 627 553 684C530 706 494 706 471 684C413 627 376 555 359 472C349 422 348 370 356 322C411 303 463 281 512 252Z" fill="url(#shield)"/>
    <path d="M512 288C554 311 597 328 642 343C647 385 646 427 638 466C624 531 594 587 547 631C527 649 497 649 477 631C430 587 400 531 386 466C378 427 377 385 382 343C427 328 470 311 512 288Z" fill="url(#shieldInner)"/>
    <path d="M622 344C655 364 681 395 692 431C703 466 698 505 681 538C663 572 635 600 602 620C567 641 526 650 487 644C446 639 409 619 383 588C356 557 344 517 348 477C352 436 370 400 401 371C432 342 475 327 520 330C555 332 591 326 622 344Z" fill="#2B2250" fill-opacity="0.18"/>
    <path d="M441 625C429 611 429 590 440 576L546 430C558 414 580 410 596 420L623 436C641 447 647 469 636 485L530 631C518 647 496 651 480 641L453 625C449 622 445 620 441 625Z" fill="url(#slash)"/>
    <path d="M424 593C426 578 439 568 454 570L513 578C529 580 540 592 538 607L535 636C534 652 521 663 505 662L446 655C430 653 419 641 421 625L424 593Z" fill="#F9FBFF" fill-opacity="0.97"/>
    <path d="M548 373C550 358 563 348 578 350L637 358C653 360 664 372 662 387L659 416C658 432 645 443 629 442L570 435C554 433 543 421 545 405L548 373Z" fill="#F9FBFF" fill-opacity="0.97"/>
    <path d="M410 598C439 631 481 649 524 646C567 644 609 621 636 586C613 625 573 653 526 660C478 667 428 648 396 611C366 576 354 527 362 482C366 533 383 571 410 598Z" fill="rgba(255,255,255,0.14)"/>
  </g>
</svg>